# AST/ASF file generated using VICON BodyLanguage
# -----------------------------------------------
:version 1.10
:name VICON
:units
  mass 1.0
  length 0.45
  angle deg
:documentation
   .ast/.asf automatically generated from VICON data using
   VICON BodyBuilder and BodyLanguage model FoxedUp or BRILLIANT.MOD
:root
   order TX TY TZ RX RY RZ
   axis XYZ
   position 0 0 0  
   orientation 0 0 0 
:bonedata
  begin
     id 1 
     name lhipjoint
     direction 0.611804 -0.747784 0.257906 
     length 2.29243 
     axis 0 0 0  XYZ
  end
  begin
     id 2 
     name lfemur
     direction 0.34202 -0.939693 0  
     length 7.31159  
     axis 0 0 20  XYZ
    dof rx ry rz
    limits (-160.0 20.0)
           (-70.0 70.0)
           (-60.0 70.0)
  end
  begin
     id 3 
     name ltibia
     direction 0.34202 -0.939693 0   
     length 7.33391   
     axis 0 0 20   XYZ
    dof rx
    limits (-10.0 170.0)
  end
  begin
     id 4 
     name lfoot
     direction 0.122263 -0.335914 0.933924   
     length 1.76083   
     axis -90 7.62852e-016 20   XYZ
    dof rx rz
    limits (-45.0 90.0)
           (-70.0 20.0)
  end
  begin
     id 5 
     name ltoes
     direction 1.53533e-011 -4.2177e-011 1   
     length 0.879206   
     axis -90 7.62852e-016 20   XYZ
    dof rx
    limits (-90.0 20.0)
  end
  begin
     id 6 
     name rhipjoint
     direction -0.646469 -0.721248 0.248754   
     length 2.37677  
     axis 0 0 0  XYZ 
  end
  begin
     id 7 
     name rfemur
     direction -0.34202 -0.939693 0   
     length 7.18623   
     axis 0 0 -20   XYZ
    dof rx ry rz
    limits (-160.0 20.0)
           (-70.0 70.0)
           (-70.0 60.0)
  end
  begin
     id 8 
     name rtibia
     direction -0.34202 -0.939693 0   
     length 7.36567   
     axis 0 0 -20   XYZ
    dof rx
    limits (-10.0 170.0)
 end
 begin
     id 9 
     name rfoot
     direction -0.126681 -0.348054 0.928876   
     length 1.71902  
     axis -90 -7.62852e-016 -20   XYZ
    dof rx rz
    limits (-45.0 90.0)
           (-20.0 70.0)
  end
  begin
     id 10 
     name rtoes
     direction -1.53551e-011 -4.21898e-011 1   
     length 0.857792   
     axis -90 -7.62852e-016 -20   XYZ
    dof rx
    limits (-90.0 20.0)
  end
  begin
     id 11 
     name lowerback
     direction 0.0106509 0.999778 0.0181844   
     length 2.07668   
     axis 0 0 0   XYZ
    dof rx ry rz
    limits (-20.0 45.0)
           (-30.0 30.0)
           (-30.0 30.0)
  end
  begin
     id 12 
     name upperback
     direction -0.00456018 0.999989 -0.000590935   
     length 2.08011   
     axis 0 0 0   XYZ
    dof rx ry rz
    limits (-20.0 45.0)
           (-30.0 30.0)
           (-30.0 30.0)
  end
  begin
     id 13 
     name thorax
     direction -0.00910382 0.999916 -0.00923765   
     length 2.07397   
     axis 0 0 0   XYZ
    dof rx ry rz
    limits (-20.0 45.0)
           (-30.0 30.0)
           (-30.0 30.0)
  end
  begin
     id 14 
     name lowerneck
     direction 0.00171967 0.99778 0.0665733   
     length 1.67556   
     axis 0 0 0   XYZ
    dof rx ry rz
    limits (-20.0 45.0)
           (-30.0 30.0)
           (-30.0 30.0)
  end
  begin
     id 15 
     name upperneck
     direction -0.0143166 0.991302 -0.130828   
     length 1.68462   
     axis 0 0 0   XYZ
    dof rx ry rz
    limits (-20.0 45.0)
           (-30.0 30.0)
           (-30.0 30.0)
  end
  begin
     id 16
     name head
     direction -0.00606378 0.998665 -0.0512995  
     length 1.69269  
     axis 0 0 0   XYZ
    dof rx ry rz
    limits (-20.0 45.0)
           (-30.0 30.0)
           (-30.0 30.0)
  end
  begin
     id 17 
     name lclavicle
     direction 0.9638 0.179341 0.197297  
     length 4.12888  
     axis 0 0 0   XYZ
    dof ry rz
    limits (-20.0 10.0)
           (0.0 20.0)
  end
  begin
     id 18 
     name lhumerus
     direction 1 -4.48972e-011 -2.47351e-027   
     length 5.01834   
     axis -180 -30 -90   XYZ
    dof rx ry rz
    limits (-60.0 90.0)
           (-90.0 90.0)
           (-90.0 90.0)
  end
  begin
     id 19
     name lradius
     direction 1 -4.48965e-011 1.51591e-026   
     length 3.4869   
     axis -180 -30 -90   XYZ
    dof rx
    limits (-10.0 170.0)
  end
  begin
     id 20
     name lwrist
     direction 1 -4.48957e-011 2.70032e-026   
     length 1.74345   
     axis -1.81515e-014 90 90   XYZ
    dof ry
    limits (-180.0 0.0)
 end
  begin
     id 21 
     name lhand
     direction 1 -4.48951e-011 5.40064e-026   
     length 0.76799   
     axis -3.44607e-014 90 90   XYZ
    dof rx rz
    limits (-90.0 90.0)
           (-45.0 45.0)
  end
  begin
     id 22 
     name lfingers
     direction 1 -4.48971e-011 1.08013e-025   
     length 0.619174   
     axis -6.89214e-014 90 90   XYZ
    dof rx
    limits (0.0 90.0)
  end
  begin
     id 23
     name lthumb
     direction 0.707107 -6.34931e-011 0.707107   
     length 0.889013   
     axis -90 45 2.85299e-015   XYZ
    dof rx rz
    limits (-45.0 45.0)
           (-45.0 45.0)
  end
  begin
     id 24 
     name rclavicle
     direction -0.961409 0.252588 0.109054   
     length 4.04305  
     axis 0 0 0   XYZ 
    dof ry rz
    limits (-10.0 20.0)
           (-20.0 0.0)
  end
  begin
     id 25 
     name rhumerus
     direction -1 -4.4897e-011 1.33872e-017  
     length 4.70164   
     axis -180 30 90   XYZ
    dof rx ry rz
    limits (-90.0 60.0)
           (-90.0 90.0)
           (-90.0 90.0)
  end
  begin
     id 26 
     name rradius
     direction -1 -4.48954e-011 1.83844e-026   
     length 3.49911   
     axis -180 30 90   XYZ
    dof rx
    limits (-10.0 170.0)
  end
  begin
     id 27 
     name rwrist
     direction -1 -4.49008e-011 2.70032e-026   
     length 1.74955   
     axis -1.81515e-014 -90 -90   XYZ
    dof ry
    limits (-180.0 0.0)
  end
  begin
     id 28
     name rhand
     direction -1 -4.48916e-011 5.40064e-026   
     length 0.739335   
     axis -3.44607e-014 -90 -90   XYZ
    dof rx rz
    limits (-90.0 90.0)
           (-45.0 45.0)
  end
  begin
     id 29
     name rfingers
     direction -1 -4.48987e-011 1.08013e-025   
     length 0.596071   
     axis -6.89214e-014 -90 -90   XYZ
    dof rx
    limits (0.0 90.0)
  end
  begin
     id 30
     name rthumb
     direction -0.707107 -6.34935e-011 0.707107   
     length 0.855843   
     axis -90 -45 -2.85299e-015   XYZ
    dof rx rz
    limits (-45.0 45.0)
           (-45.0 45.0)
  end
:hierarchy
  begin
    root lhipjoint rhipjoint lowerback
    lhipjoint lfemur
    lfemur ltibia
    ltibia lfoot
    lfoot ltoes
    rhipjoint rfemur
    rfemur rtibia
    rtibia rfoot
    rfoot rtoes
    lowerback upperback
    upperback thorax
    thorax lowerneck lclavicle rclavicle
    lowerneck upperneck
    upperneck head
    lclavicle lhumerus
    lhumerus lradius
    lradius lwrist
    lwrist lhand lthumb
    lhand lfingers
    rclavicle rhumerus
    rhumerus rradius
    rradius rwrist
    rwrist rhand rthumb
    rhand rfingers
  end

#!OML:ASF I:\salsa\salsa 7_09\Patient 1\Session 1\dancermale.ASF
:FULLY-SPECIFIED
:DEGREES
761
root 6.32499 16.7901 5.8005 189.459 -13.0922 -178.921
lowerback 2.18366 2.93715 1.42071
upperback 0.827972 3.9284 -0.260633
thorax -0.259485 1.96077 -1.1495
lowerneck -7.81808 11.9647 6.11871
upperneck 18.7971 17.2437 -11.93
head 8.7518 7.27613 -3.13297
rclavicle -2.87244e-014 8.05078e-015
rhumerus -12.9656 -1.96458 -85.9828
rradius 82.1492
rwrist -17.7959
rhand -3.17772 13.9548
rfingers 7.12502
rthumb 22.5434 -14.7491
lclavicle -2.87244e-014 8.05078e-015
lhumerus -2.42263 22.776 92.4102
lradius 50.279
lwrist 81.272
lhand 2.21774 67.8174
lfingers 7.12502
lthumb 27.7128 624.205
rfemur -15.479 -9.48292 -1.1497
rtibia 29.6108
rfoot -12.0492 -5.16488
rtoes -27.6392
lfemur -27.2397 20.4036 -6.35656
ltibia 36.0745
lfoot -15.783 10.8404
ltoes -26.0661
762
root 6.22324 16.7729 5.81164 189.43 -12.6782 -178.625
lowerback 2.18694 2.9337 1.5796
upperback 0.830919 3.92662 -0.324243
thorax -0.243133 1.96041 -1.30251
lowerneck -7.75863 12.0874 6.52361
upperneck 18.6141 17.3617 -11.9646
head 8.73122 7.37692 -3.18975
rclavicle -3.07868e-014 1.39149e-015
rhumerus -13.5272 -1.78964 -86.8665
rradius 83.056
rwrist -15.7436
rhand -4.42499 14.7042
rfingers 7.12502
rthumb 21.3458 -14.1401
lclavicle -3.07868e-014 1.39149e-015
lhumerus -1.48246 23.6333 92.3996
lradius 49.5731
lwrist 80.8311
lhand 9.05307 68.228
lfingers 7.12502
lthumb 34.2277 625.039
rfemur -15.4277 -9.07405 -1.25135
rtibia 29.1493
rfoot -11.6523 -5.02674
rtoes -27.4884
lfemur -27.9263 21.5879 -6.50135
ltibia 37.5084
lfoot -16.6293 10.5268
ltoes -25.7667
763
root 6.13116 16.7521 5.81955 189.418 -12.465 -178.351
lowerback 2.15038 2.83665 1.68149
upperback 0.797731 3.79967 -0.310464
thorax -0.255297 1.89702 -1.34171
lowerneck -7.56321 12.2271 6.85486
upperneck 18.3823 17.5272 -12.1218
head 8.6808 7.48657 -3.27826
rclavicle 3.72628e-014 -3.36692e-015
rhumerus -14.1097 -1.37418 -87.683
rradius 83.9067
rwrist -14.0346
rhand -5.38121 15.526
rfingers 7.12502
rthumb 20.4271 -13.4196
lclavicle 3.72628e-014 -3.36692e-015
lhumerus -0.655416 24.5725 92.2838
lradius 48.947
lwrist 80.5063
lhand 16.8411 69.593
lfingers 7.12502
lthumb 41.5818 625.678
rfemur -15.2267 -8.68491 -1.26774
rtibia 28.6001
rfoot -11.5538 -5.26938
rtoes -27.6291
lfemur -28.4726 22.0812 -6.63329
ltibia 38.617
lfoot -17.3944 10.547
ltoes -25.4478
764
root 6.04948 16.7266 5.82459 189.494 -12.3165 -178.131
lowerback 2.09469 2.62636 1.47739
upperback 0.6995 3.51756 -0.0749194
thorax -0.362007 1.75424 -0.982919
lowerneck -7.40757 12.4808 6.72435
upperneck 18.2732 17.8966 -12.1973
head 8.65048 7.6514 -3.24282
rclavicle 3.34766e-014 -1.16786e-014
rhumerus -14.7845 -0.249655 -88.1873
rradius 84.871
rwrist -12.9271
rhand -6.17801 15.9797
rfingers 7.12502
rthumb 19.6612 -13.046
lclavicle 3.34766e-014 -1.16786e-014
lhumerus 0.0123702 25.8801 92.1026
lradius 48.3182
lwrist 80.431
lhand 16.9262 68.8611
lfingers 7.12502
lthumb 41.6615 626.436
rfemur -15.0788 -8.3087 -1.27033
rtibia 28.0844
rfoot -11.7381 -5.65349
rtoes -26.9422
lfemur -29.0202 22.2012 -6.81754
ltibia 39.5876
lfoot -18.0839 10.8729
ltoes -25.2847
765
root 5.97981 16.7022 5.82723 189.433 -12.1815 -177.972
lowerback 2.13885 2.46211 1.49965
upperback 0.714017 3.29917 -0.119662
thorax -0.373956 1.64502 -1.03828
lowerneck -7.3593 12.6824 6.71892
upperneck 18.0088 18.1384 -12.0667
head 8.56343 7.79963 -3.16924
rclavicle -1.3977e-014 -1.3418e-014
rhumerus -15.3555 0.691954 -89.0056
rradius 85.8183
rwrist -11.7138
rhand -7.2675 16.4935
rfingers 7.12502
rthumb 18.6135 -12.636
lclavicle -1.3977e-014 -1.3418e-014
lhumerus 1.01076 27.0728 91.5163
lradius 47.1232
lwrist 78.9425
lhand 17.1317 68.9481
lfingers 7.12502
lthumb 41.8543 626.413
rfemur -14.7716 -7.76693 -1.2745
rtibia 27.5738
rfoot -12.0851 -6.16223
rtoes -25.877
lfemur -29.3677 22.4584 -6.97869
ltibia 40.4234
lfoot -18.5025 11.2458
ltoes -26.0327
766
root 5.92123 16.6744 5.82694 189.374 -12.0363 -177.834
lowerback 2.12941 2.41755 1.26452
upperback 0.744196 3.23426 -0.0633785
thorax -0.355976 1.6123 -0.847368
lowerneck -7.2962 12.7839 6.71019
upperneck 17.7228 18.2552 -12.0165
head 8.46144 7.88297 -3.14071
rclavicle 9.00743e-015 -1.67476e-014
rhumerus -15.9531 1.5095 -89.5723
rradius 86.7751
rwrist -10.0996
rhand -8.50739 16.9891
rfingers 7.12502
rthumb 17.4206 -12.2502
lclavicle 9.00743e-015 -1.67476e-014
lhumerus 1.98175 28.1284 91.2618
lradius 46.1312
lwrist 77.2661
lhand 17.2599 68.9005
lfingers 7.12502
lthumb 41.9745 626.501
rfemur -14.4894 -7.15183 -1.24967
rtibia 27.1001
rfoot -12.5247 -6.84383
rtoes -25.4023
lfemur -29.682 22.8153 -7.12345
ltibia 41.1604
lfoot -18.6476 11.7104
ltoes -27.8357
767
root 5.86584 16.643 5.8257 189.312 -11.947 -177.743
lowerback 2.09214 2.43588 1.0396
upperback 0.805003 3.25246 -0.0343433
thorax -0.286702 1.62134 -0.689474
lowerneck -7.2968 12.8179 6.78676
upperneck 17.4644 18.292 -12.0844
head 8.39288 7.9187 -3.16945
rclavicle 4.02166e-014 9.0944e-015
rhumerus -16.4859 2.11626 -90.0413
rradius 87.7591
rwrist -8.25302
rhand -9.19035 17.1836
rfingers 7.12502
rthumb 16.7632 -12.1127
lclavicle 4.02166e-014 9.0944e-015
lhumerus 2.94497 29.6257 91.4387
lradius 45.6412
lwrist 74.8295
lhand 17.4313 69.2069
lfingers 7.12502
lthumb 42.1351 626.248
rfemur -14.1936 -6.63162 -1.30112
rtibia 26.6718
rfoot -13.0076 -7.49442
rtoes -25.3907
lfemur -30.005 22.9878 -7.26695
ltibia 41.9289
lfoot -18.9089 12.0501
ltoes -28.6659
768
root 5.81417 16.6133 5.82737 189.215 -12.0231 -177.71
lowerback 2.2016 2.43315 0.970954
upperback 0.85092 3.24689 -0.0739176
thorax -0.302522 1.61804 -0.695441
lowerneck -7.38818 12.8169 6.76225
upperneck 17.3116 18.2842 -12.0738
head 8.35369 7.92301 -3.15845
rclavicle 4.09248e-014 -1.96797e-014
rhumerus -16.9659 2.75171 -90.4663
rradius 88.6504
rwrist -6.52826
rhand -9.6615 17.2162
rfingers 7.12502
rthumb 16.3096 -12.118
lclavicle 4.09248e-014 -1.96797e-014
lhumerus 4.0023 29.6802 90.8073
lradius 44.1991
lwrist 75.2876
lhand 16.6562 68.9192
lfingers 7.12502
lthumb 41.4083 626.296
rfemur -13.802 -6.30912 -1.41735
rtibia 26.2904
rfoot -13.4968 -8.00092
rtoes -25.1744
lfemur -30.3787 22.9646 -7.43799
ltibia 42.7481
lfoot -19.2993 12.1858
ltoes -28.4105
769
root 5.7757 16.5907 5.83292 188.917 -12.1423 -177.696
lowerback 2.65433 2.46765 0.852647
upperback 0.915801 3.29022 -0.0975113
thorax -0.493598 1.6371 -0.67462
lowerneck -7.56628 12.7829 6.57093
upperneck 17.3187 18.235 -11.9143
head 8.34788 7.89645 -3.07533
rclavicle -1.6524e-014 8.74653e-015
rhumerus -17.4489 3.63445 -90.6877
rradius 89.4303
rwrist -5.07549
rhand -10.5645 17.2548
rfingers 7.12502
rthumb 15.44 -12.1485
lclavicle -1.6524e-014 8.74653e-015
lhumerus 4.75662 30.9758 90.923
lradius 44.1572
lwrist 74.9157
lhand 15.6042 69.1598
lfingers 7.12502
lthumb 40.4201 625.742
rfemur -13.199 -6.07137 -1.49099
rtibia 25.934
rfoot -13.9355 -8.39131
rtoes -24.9317
lfemur -30.4588 22.9701 -7.52827
ltibia 43.4292
lfoot -19.6471 12.1708
ltoes -28.3117
770
root 5.74675 16.5642 5.83758 188.748 -12.1477 -177.675
lowerback 2.89157 2.58144 0.579474
upperback 0.99129 3.43282 -0.0817557
thorax -0.563376 1.70653 -0.520361
lowerneck -7.69362 12.7172 6.48886
upperneck 17.2547 18.1604 -11.9675
head 8.3395 7.85051 -3.08338
rclavicle -5.22555e-014 -1.88845e-014
rhumerus -17.7998 4.67087 -90.7239
rradius 90.0091
rwrist -3.6523
rhand -11.7029 17.3691
rfingers 7.12502
rthumb 14.3433 -12.1154
lclavicle -5.22555e-014 -1.88845e-014
lhumerus 5.55512 32.5447 91.2885
lradius 44.546
lwrist 75.4092
lhand 14.0178 69.0399
lfingers 7.12502
lthumb 38.9263 625.419
rfemur -12.8599 -5.8959 -1.52281
rtibia 25.7033
rfoot -14.2731 -8.64629
rtoes -25.0914
lfemur -30.5718 23.1649 -7.62533
ltibia 43.9865
lfoot -19.9298 12.1853
ltoes -28.5342
771
root 5.72208 16.5288 5.83925 189.002 -12.0566 -177.623
lowerback 2.56549 2.75702 0.286451
upperback 0.995956 3.65979 -0.088623
thorax -0.39148 1.82102 -0.354253
lowerneck -7.86044 12.6138 6.53594
upperneck 17.2205 18.0271 -12.052
head 8.35771 7.78047 -3.12496
rclavicle 5.2007e-014 7.55382e-015
rhumerus -17.9427 5.51381 -90.7968
rradius 90.3649
rwrist -2.30311
rhand -12.8086 17.4259
rfingers 7.12502
rthumb 13.2776 -12.1312
lclavicle 5.2007e-014 7.55382e-015
lhumerus 6.64199 34.1704 91.5237
lradius 44.4914
lwrist 77.0338
lhand 11.8989 68.667
lfingers 7.12502
lthumb 36.9251 625.249
rfemur -13.11 -5.85955 -1.51001
rtibia 25.6591
rfoot -14.5493 -8.7582
rtoes -25.8082
lfemur -31.2117 23.6298 -7.8524
ltibia 44.6341
lfoot -20.2303 12.2445
ltoes -28.9397
772
root 5.69436 16.5108 5.83511 188.653 -12.1336 -177.579
lowerback 2.842 2.91484 0.187232
upperback 1.16368 3.86105 -0.144537
thorax -0.375186 1.91896 -0.371604
lowerneck -8.22443 12.5338 6.46717
upperneck 17.4864 17.8866 -11.6795
head 8.45308 7.72069 -2.989
rclavicle 2.05494e-014 -2.78299e-015
rhumerus -17.9838 6.15933 -90.9515
rradius 90.5908
rwrist -1.50138
rhand -13.9866 17.3378
rfingers 7.12502
rthumb 12.142 -12.2899
lclavicle 2.05494e-014 -2.78299e-015
lhumerus 7.55882 35.227 91.342
lradius 44.4292
lwrist 80.0743
lhand 9.38541 68.222
lfingers 7.12502
lthumb 34.5432 625.116
rfemur -12.5903 -5.69719 -1.66461
rtibia 25.5142
rfoot -14.7809 -8.96376
rtoes -26.9741
lfemur -31.0465 23.6465 -7.81144
ltibia 45.0251
lfoot -20.4421 12.4425
ltoes -29.2573
773
root 5.67443 16.4921 5.82907 188.424 -12.0716 -177.464
lowerback 2.95466 3.13948 0.0712255
upperback 1.30385 4.15179 -0.17347
thorax -0.298357 2.06199 -0.347282
lowerneck -8.54008 12.475 6.38255
upperneck 17.661 17.7783 -11.353
head 8.51636 7.67898 -2.86482
rclavicle -8.64713e-015 9.34288e-015
rhumerus -17.9333 6.81238 -91.0455
rradius 90.7824
rwrist -1.67039
rhand -14.6495 17.0412
rfingers 7.12502
rthumb 11.5028 -12.6232
lclavicle -8.64713e-015 9.34288e-015
lhumerus 8.26035 35.8637 91.167
lradius 44.5847
lwrist 83.0317
lhand 7.31694 67.8213
lfingers 7.12502
lthumb 32.5773 625.09
rfemur -12.3431 -5.51758 -1.6913
rtibia 25.4913
rfoot -14.8913 -9.05582
rtoes -28.4379
lfemur -30.9486 23.959 -7.70633
ltibia 45.3752
lfoot -20.6069 12.5255
ltoes -29.3493
774
root 5.65644 16.4723 5.83668 188.493 -12.3532 -177.424
lowerback 2.94384 3.23834 -0.0113517
upperback 1.3249 4.28049 -0.212265
thorax -0.273015 2.12592 -0.343592
lowerneck -8.65462 12.3681 6.44672
upperneck 17.5655 17.6284 -11.4014
head 8.50096 7.61308 -2.9037
rclavicle 8.50798e-014 -1.59028e-015
rhumerus -17.8358 7.45798 -91.0953
rradius 90.9478
rwrist -2.50581
rhand -14.5383 16.7571
rfingers 7.12502
rthumb 11.61 -12.9013
lclavicle 8.50798e-014 -1.59028e-015
lhumerus 9.18478 36.4343 91.2644
lradius 44.6459
lwrist 83.7895
lhand 6.34485 67.3212
lfingers 7.12502
lthumb 31.6519 625.404
rfemur -12.2948 -5.79592 -1.74203
rtibia 25.5087
rfoot -14.9054 -8.88922
rtoes -29.6399
lfemur -31.4379 23.9623 -7.89448
ltibia 45.8714
lfoot -20.7907 12.5091
ltoes -29.1997
